<svg width="24" height="24" viewBox="0 0 24 24" fill="none" xmlns="http://www.w3.org/2000/svg">
<rect width="24" height="24" fill="white" fill-opacity="0.01"/>
<path fill-rule="evenodd" clip-rule="evenodd" d="M10.4413 18.5573C10.6857 18.801 10.6863 19.1968 10.4426 19.4412C10.1989 19.6857 9.80319 19.6863 9.55874 19.4426L2.72013 12.625H2.23457C1.88939 12.625 1.60957 12.3452 1.60957 12C1.60957 11.7383 1.77036 11.5142 1.99854 11.4211C2.02889 11.3283 2.08087 11.243 2.15133 11.1727L9.55874 3.78809C9.80319 3.54439 10.1989 3.545 10.4426 3.78945C10.6863 4.03391 10.6857 4.42963 10.4413 4.67333L3.71891 11.375H21C21.3452 11.375 21.625 11.6548 21.625 12C21.625 12.3452 21.3452 12.625 21 12.625H4.49063L10.4413 18.5573Z" fill="white"/>
</svg>
