<svg width="24" height="24" viewBox="0 0 24 24" fill="none" xmlns="http://www.w3.org/2000/svg">
<path fill-rule="evenodd" clip-rule="evenodd" d="M19.3192 4.75781C19.1536 4.75781 19.0076 4.86644 18.9601 5.02506L16.1158 14.506C15.9096 15.1934 15.2769 15.6641 14.5593 15.6641H4.94238C4.5972 15.6641 4.31738 15.3843 4.31738 15.0391C4.31738 14.6939 4.5972 14.4141 4.94238 14.4141H14.5593C14.7249 14.4141 14.8709 14.3055 14.9185 14.1468L17.7628 4.66587C17.969 3.97852 18.6016 3.50781 19.3192 3.50781H21.3018C21.647 3.50781 21.9268 3.78763 21.9268 4.13281C21.9268 4.47799 21.647 4.75781 21.3018 4.75781H19.3192ZM7.12364 19.2422C7.63795 19.2422 8.05489 18.8252 8.05489 18.3109C8.05489 17.7966 7.63795 17.3796 7.12364 17.3796C6.60932 17.3796 6.19238 17.7966 6.19238 18.3109C6.19238 18.8252 6.60932 19.2422 7.12364 19.2422ZM7.12364 20.4922C8.32831 20.4922 9.30489 19.5156 9.30489 18.3109C9.30489 17.1062 8.32831 16.1296 7.12364 16.1296C5.91896 16.1296 4.94238 17.1062 4.94238 18.3109C4.94238 19.5156 5.91896 20.4922 7.12364 20.4922ZM14.5987 18.3109C14.5987 18.8252 14.1817 19.2422 13.6674 19.2422C13.1531 19.2422 12.7362 18.8252 12.7362 18.3109C12.7362 17.7966 13.1531 17.3796 13.6674 17.3796C14.1817 17.3796 14.5987 17.7966 14.5987 18.3109ZM15.8487 18.3109C15.8487 19.5156 14.8721 20.4922 13.6674 20.4922C12.4627 20.4922 11.4862 19.5156 11.4862 18.3109C11.4862 17.1062 12.4627 16.1296 13.6674 16.1296C14.8721 16.1296 15.8487 17.1062 15.8487 18.3109Z" fill="#540D6E"/>
<path d="M5.10314 12.8578H12.536C12.9741 12.8578 13.3612 12.5726 13.4911 12.1541L15.1022 6.96219C15.2021 6.64043 14.9616 6.31401 14.6247 6.31401L2.7814 6.31397C2.43602 6.31396 2.19465 6.65582 2.31023 6.98129L4.1608 12.1924C4.30244 12.5913 4.67987 12.8578 5.10314 12.8578Z" fill="#FFCE00" stroke="#FFCE00" stroke-linecap="round" stroke-linejoin="round"/>
</svg>
