<svg width="24" height="24" viewBox="0 0 24 24" fill="none" xmlns="http://www.w3.org/2000/svg">
<rect width="24" height="24" fill="white" fill-opacity="0.01"/>
<path fill-rule="evenodd" clip-rule="evenodd" d="M3.55806 19.558C3.31398 19.8021 3.31398 20.1978 3.55806 20.4419C3.80214 20.686 4.19786 20.686 4.44194 20.4419L12 12.8838L20.3067 21.1905C20.5508 21.4346 20.9465 21.4346 21.1906 21.1905C21.4346 20.9464 21.4346 20.5507 21.1906 20.3066L12.8839 12L21.1906 3.69328C21.4346 3.44921 21.4346 3.05348 21.1906 2.8094C20.9465 2.56532 20.5508 2.56532 20.3067 2.8094L12 11.1161L4.44194 3.55802C4.19786 3.31394 3.80214 3.31394 3.55806 3.55802C3.31398 3.80209 3.31398 4.19782 3.55806 4.4419L11.1161 12L3.55806 19.558Z" fill="white"/>
</svg>
