<svg width="24" height="24" viewBox="0 0 24 24" fill="none" xmlns="http://www.w3.org/2000/svg">
<rect width="24" height="24" fill="white" fill-opacity="0.01"/>
<circle cx="12" cy="12" r="9.375" stroke="#540D6E" stroke-width="1.25"/>
<path d="M11.45 6.38608C11.6231 5.8713 12.3769 5.87131 12.55 6.38608L13.688 9.7697C13.7654 9.99991 13.9875 10.1558 14.238 10.1558H17.9205C18.4808 10.1558 18.7137 10.8484 18.2605 11.1666L15.2813 13.2577C15.0786 13.4 14.9938 13.6522 15.0712 13.8824L16.2091 17.2661C16.3823 17.7808 15.7724 18.2089 15.3192 17.8908L12.3399 15.7996C12.1372 15.6573 11.8628 15.6573 11.6601 15.7996L8.68084 17.8908C8.22758 18.2089 7.61774 17.7808 7.79086 17.2661L8.92882 13.8824C9.00625 13.6522 8.92143 13.4 8.71873 13.2577L5.73951 11.1666C5.28626 10.8484 5.5192 10.1558 6.07945 10.1558H9.76197C10.0125 10.1558 10.2346 9.99991 10.312 9.7697L11.45 6.38608Z" fill="#FFCE00"/>
</svg>
