<svg width="20" height="20" viewBox="0 0 20 20" fill="none" xmlns="http://www.w3.org/2000/svg">
<rect width="20" height="20" fill="white" fill-opacity="0.01"/>
<path fill-rule="evenodd" clip-rule="evenodd" d="M8.16562 3.97664C8.25684 3.73323 8.49163 3.55998 8.76689 3.55998H11.2331C11.5084 3.55998 11.7432 3.73323 11.8344 3.97664H8.16562ZM6.88827 3.97664C6.99962 3.03795 7.79824 2.30998 8.76689 2.30998H11.2331C12.2018 2.30998 13.0004 3.03795 13.1117 3.97664H16.6667C17.0118 3.97664 17.2917 4.25647 17.2917 4.60164C17.2917 4.94682 17.0118 5.22664 16.6667 5.22664H3.33333C2.98816 5.22664 2.70833 4.94682 2.70833 4.60164C2.70833 4.25647 2.98816 3.97664 3.33333 3.97664H6.88827ZM4.58333 6.12417C4.92851 6.12417 5.20833 6.40399 5.20833 6.74917V14.7221C5.20833 15.4965 5.83604 16.1242 6.61036 16.1242H13.3896C14.1647 16.1242 14.7917 15.4975 14.7917 14.7239V14.7116V14.6992V14.6868V14.6744V14.6619V14.6494V14.6369V14.6243V14.6118V14.5992V14.5865V14.5739V14.5612V14.5485V14.5358V14.523V14.5102V14.4974V14.4845V14.4717V14.4588V14.4459V14.4329V14.4199V14.4069V14.3939V14.3809V14.3678V14.3547V14.3416V14.3284V14.3152V14.302V14.2888V14.2755V14.2623V14.249V14.2356V14.2223V14.2089V14.1955V14.1821V14.1686V14.1551V14.1416V14.1281V14.1146V14.101V14.0874V14.0738V14.0601V14.0465V14.0328V14.0191V14.0053V13.9916V13.9778V13.964V13.9502V13.9363V13.9224V13.9085V13.8946V13.8807V13.8667V13.8527V13.8387V13.8247V13.8106V13.7966V13.7825V13.7683V13.7542V13.74V13.7259V13.7117V13.6974V13.6832V13.6689V13.6546V13.6403V13.626V13.6116V13.5973V13.5829V13.5685V13.554V13.5396V13.5251V13.5106V13.4961V13.4816V13.467V13.4524V13.4378V13.4232V13.4086V13.3939V13.3793V13.3646V13.3499V13.3352V13.3204V13.3056V13.2909V13.2761V13.2612V13.2464V13.2315V13.2167V13.2018V13.1869V13.1719V13.157V13.142V13.127V13.112V13.097V13.082V13.0669V13.0519V13.0368V13.0217V13.0065V12.9914V12.9762V12.9611V12.9459V12.9307V12.9155V12.9002V12.885V12.8697V12.8544V12.8391V12.8238V12.8085V12.7931V12.7777V12.7624V12.747V12.7316V12.7161V12.7007V12.6852V12.6698V12.6543V12.6388V12.6232V12.6077V12.5922V12.5766V12.561V12.5454V12.5298V12.5142V12.4986V12.483V12.4673V12.4516V12.4359V12.4202V12.4045V12.3888V12.3731V12.3573V12.3415V12.3258V12.31V12.2942V12.2783V12.2625V12.2467V12.2308V12.2149V12.1991V12.1832V12.1673V12.1514V12.1354V12.1195V12.1035V12.0876V12.0716V12.0556V12.0396V12.0236V12.0076V11.9916V11.9755V11.9595V11.9434V11.9273V11.9112V11.8951V11.879V11.8629V11.8468V11.8307V11.8145V11.7984V11.7822V11.766V11.7498V11.7336V11.7174V11.7012V11.685V11.6688V11.6525V11.6363V11.62V11.6037V11.5875V11.5712V11.5549V11.5386V11.5223V11.5059V11.4896V11.4733V11.4569V11.4406V11.4242V11.4078V11.3915V11.3751V11.3587V11.3423V11.3259V11.3095V11.2931V11.2766V11.2602V11.2437V11.2273V11.2108V11.1944V11.1779V11.1614V11.145V11.1285V11.112V11.0955V11.079V11.0625V11.0459V11.0294V11.0129V10.9964V10.9798V10.9633V10.9467V10.9302V10.9136V10.897V10.8805V10.8639V10.8473V10.8307V10.8141V10.7975V10.7809V10.7643V10.7477V10.7311V10.7145V10.6979V10.6813V10.6646V10.648V10.6314V10.6147V10.5981V10.5815V10.5648V10.5482V10.5315V10.5149V10.4982V10.4815V10.4649V10.4482V10.4315V10.4149V10.3982V10.3815V10.3648V10.3482V10.3315V10.3148V10.2981V10.2814V10.2647V10.248V10.2314V10.2147V10.198V10.1813V10.1646V10.1479V10.1312V10.1145V10.0978V10.0811V10.0644V10.0477V10.031V10.0143V9.99759V9.98089V9.96419V9.94749V9.93079V9.9141V9.8974V9.8807V9.864V9.8473V9.83061V9.81391V9.79722V9.78053V9.76383V9.74714V9.73045V9.71377V9.69708V9.6804V9.66371V9.64703V9.63035V9.61368V9.597V9.58033V9.56366V9.54699V9.53032V9.51366V9.497V9.48034V9.46369V9.44704V9.43039V9.41374V9.3971V9.38046V9.36382V9.34719V9.33056V9.31394V9.29731V9.2807V9.26408V9.24747V9.23087V9.21427V9.19767V9.18108V9.16449V9.1479V9.13132V9.11475V9.09818V9.08161V9.06505V9.0485V9.03195V9.01541V8.99887V8.98233V8.96581V8.94928V8.93277V8.91626V8.89975V8.88325V8.86676V8.85028V8.83379V8.81732V8.80085V8.78439V8.76794V8.75149V8.73505V8.71862V8.70219V8.68577V8.66936V8.65295V8.63656V8.62017V8.60378V8.58741V8.57104V8.55468V8.53833V8.52199V8.50565V8.48932V8.473V8.45669V8.44039V8.4241V8.40781V8.39154V8.37527V8.35901V8.34276V8.32652V8.31029V8.29407V8.27786V8.26165V8.24546V8.22927V8.2131V8.19694V8.18078V8.16464V8.1485V8.13238V8.11626V8.10016V8.08407V8.06799V8.05191V8.03585V8.0198V8.00376V7.98773V7.97172V7.95571V7.93972V7.92373V7.90776V7.8918V7.87585V7.85991V7.84399V7.82808V7.81217V7.79629V7.78041V7.76454V7.74869V7.73285V7.71702V7.70121V7.68541V7.66962V7.65384V7.63808V7.62233V7.60659V7.59087V7.57516V7.55946V7.54378V7.52811V7.51245V7.49681V7.48118V7.46557V7.44997V7.43438V7.41881V7.40325V7.38771V7.37218V7.35667V7.34117V7.32568V7.31021V7.29476V7.27932V7.2639V7.24849V7.23309V7.21772V7.20235V7.18701V7.17168V7.15636V7.14106V7.12578V7.11051V7.09526V7.08003V7.06481V7.04961V7.03442V7.01925V7.0041V6.98897V6.97385V6.95875V6.94366V6.9286V6.91355V6.89851V6.8835V6.8685V6.85352V6.83856V6.82362V6.80869V6.79378V6.77889V6.76402V6.74917C14.7917 6.40399 15.0715 6.12417 15.4167 6.12417C15.7618 6.12417 16.0417 6.40399 16.0417 6.74917V6.76402V6.77889V6.79378V6.80869V6.82362V6.83856V6.85352V6.8685V6.8835V6.89851V6.91355V6.9286V6.94366V6.95875V6.97385V6.98897V7.0041V7.01925V7.03442V7.04961V7.06481V7.08003V7.09526V7.11051V7.12578V7.14106V7.15636V7.17168V7.18701V7.20235V7.21772V7.23309V7.24849V7.2639V7.27932V7.29476V7.31021V7.32568V7.34117V7.35667V7.37218V7.38771V7.40325V7.41881V7.43438V7.44997V7.46557V7.48118V7.49681V7.51245V7.52811V7.54378V7.55946V7.57516V7.59087V7.60659V7.62233V7.63808V7.65384V7.66962V7.68541V7.70121V7.71702V7.73285V7.74869V7.76454V7.78041V7.79629V7.81217V7.82808V7.84399V7.85991V7.87585V7.8918V7.90776V7.92373V7.93972V7.95571V7.97172V7.98773V8.00376V8.0198V8.03585V8.05191V8.06799V8.08407V8.10016V8.11626V8.13238V8.1485V8.16464V8.18078V8.19694V8.2131V8.22927V8.24546V8.26165V8.27786V8.29407V8.31029V8.32652V8.34276V8.35901V8.37527V8.39154V8.40781V8.4241V8.44039V8.45669V8.473V8.48932V8.50565V8.52199V8.53833V8.55468V8.57104V8.58741V8.60378V8.62017V8.63656V8.65295V8.66936V8.68577V8.70219V8.71862V8.73505V8.75149V8.76794V8.78439V8.80085V8.81732V8.83379V8.85028V8.86676V8.88325V8.89975V8.91626V8.93277V8.94928V8.96581V8.98233V8.99887V9.01541V9.03195V9.0485V9.06505V9.08161V9.09818V9.11475V9.13132V9.1479V9.16449V9.18108V9.19767V9.21427V9.23087V9.24747V9.26408V9.2807V9.29731V9.31394V9.33056V9.34719V9.36382V9.38046V9.3971V9.41374V9.43039V9.44704V9.46369V9.48034V9.497V9.51366V9.53032V9.54699V9.56366V9.58033V9.597V9.61368V9.63035V9.64703V9.66371V9.6804V9.69708V9.71377V9.73045V9.74714V9.76383V9.78053V9.79722V9.81391V9.83061V9.8473V9.864V9.8807V9.8974V9.9141V9.93079V9.94749V9.96419V9.98089V9.99759V10.0143V10.031V10.0477V10.0644V10.0811V10.0978V10.1145V10.1312V10.1479V10.1646V10.1813V10.198V10.2147V10.2314V10.248V10.2647V10.2814V10.2981V10.3148V10.3315V10.3482V10.3648V10.3815V10.3982V10.4149V10.4315V10.4482V10.4649V10.4815V10.4982V10.5149V10.5315V10.5482V10.5648V10.5815V10.5981V10.6147V10.6314V10.648V10.6646V10.6813V10.6979V10.7145V10.7311V10.7477V10.7643V10.7809V10.7975V10.8141V10.8307V10.8473V10.8639V10.8805V10.897V10.9136V10.9302V10.9467V10.9633V10.9798V10.9964V11.0129V11.0294V11.0459V11.0625V11.079V11.0955V11.112V11.1285V11.145V11.1614V11.1779V11.1944V11.2108V11.2273V11.2437V11.2602V11.2766V11.2931V11.3095V11.3259V11.3423V11.3587V11.3751V11.3915V11.4078V11.4242V11.4406V11.4569V11.4733V11.4896V11.5059V11.5223V11.5386V11.5549V11.5712V11.5875V11.6037V11.62V11.6363V11.6525V11.6688V11.685V11.7012V11.7174V11.7336V11.7498V11.766V11.7822V11.7984V11.8145V11.8307V11.8468V11.8629V11.879V11.8951V11.9112V11.9273V11.9434V11.9595V11.9755V11.9916V12.0076V12.0236V12.0396V12.0556V12.0716V12.0876V12.1035V12.1195V12.1354V12.1514V12.1673V12.1832V12.1991V12.2149V12.2308V12.2467V12.2625V12.2783V12.2942V12.31V12.3258V12.3415V12.3573V12.3731V12.3888V12.4045V12.4202V12.4359V12.4516V12.4673V12.483V12.4986V12.5142V12.5298V12.5454V12.561V12.5766V12.5922V12.6077V12.6232V12.6388V12.6543V12.6698V12.6852V12.7007V12.7161V12.7316V12.747V12.7624V12.7777V12.7931V12.8085V12.8238V12.8391V12.8544V12.8697V12.885V12.9002V12.9155V12.9307V12.9459V12.9611V12.9762V12.9914V13.0065V13.0217V13.0368V13.0519V13.0669V13.082V13.097V13.112V13.127V13.142V13.157V13.1719V13.1869V13.2018V13.2167V13.2315V13.2464V13.2612V13.2761V13.2909V13.3056V13.3204V13.3352V13.3499V13.3646V13.3793V13.3939V13.4086V13.4232V13.4378V13.4524V13.467V13.4816V13.4961V13.5106V13.5251V13.5396V13.554V13.5685V13.5829V13.5973V13.6116V13.626V13.6403V13.6546V13.6689V13.6832V13.6974V13.7117V13.7259V13.74V13.7542V13.7683V13.7825V13.7966V13.8106V13.8247V13.8387V13.8527V13.8667V13.8807V13.8946V13.9085V13.9224V13.9363V13.9502V13.964V13.9778V13.9916V14.0053V14.0191V14.0328V14.0465V14.0601V14.0738V14.0874V14.101V14.1146V14.1281V14.1416V14.1551V14.1686V14.1821V14.1955V14.2089V14.2223V14.2356V14.249V14.2623V14.2755V14.2888V14.302V14.3152V14.3284V14.3416V14.3547V14.3678V14.3809V14.3939V14.4069V14.4199V14.4329V14.4459V14.4588V14.4717V14.4845V14.4974V14.5102V14.523V14.5358V14.5485V14.5612V14.5739V14.5865V14.5992V14.6118V14.6243V14.6369V14.6494V14.6619V14.6744V14.6868V14.6992V14.7116V14.7239C16.0417 16.1893 14.8536 17.3742 13.3896 17.3742H6.61036C5.14569 17.3742 3.95833 16.1868 3.95833 14.7221V6.74917C3.95833 6.40399 4.23816 6.12417 4.58333 6.12417ZM8.33333 7.25444C8.67851 7.25444 8.95833 7.53426 8.95833 7.87944L8.95833 14.5461C8.95833 14.8913 8.67851 15.1711 8.33333 15.1711C7.98816 15.1711 7.70833 14.8913 7.70833 14.5461L7.70833 7.87944C7.70833 7.53426 7.98815 7.25444 8.33333 7.25444ZM12.2917 7.87944C12.2917 7.53426 12.0118 7.25444 11.6667 7.25444C11.3215 7.25444 11.0417 7.53426 11.0417 7.87944V14.5461C11.0417 14.8913 11.3215 15.1711 11.6667 15.1711C12.0118 15.1711 12.2917 14.8913 12.2917 14.5461V7.87944Z" fill="#540D6E"/>
</svg>
