<svg width="20" height="20" viewBox="0 0 20 20" fill="none" xmlns="http://www.w3.org/2000/svg">
<rect width="20" height="20" fill="white" fill-opacity="0.01"/>
<path fill-rule="evenodd" clip-rule="evenodd" d="M16.2753 4.60857C16.5194 4.36449 16.5194 3.96876 16.2753 3.72469C16.0312 3.48061 15.6355 3.48061 15.3914 3.72468L13.3371 5.77904C12.3318 5.412 11.1954 5.20829 9.99998 5.20829C8.0489 5.20829 6.25514 5.75093 4.93185 6.66069C3.61133 7.56855 2.70831 8.88591 2.70831 10.4166C2.70831 11.9473 3.61133 13.2647 4.93185 14.1726C4.93416 14.1741 4.93646 14.1757 4.93876 14.1773L2.89137 16.2247C2.64729 16.4688 2.64729 16.8645 2.89137 17.1086C3.13545 17.3526 3.53118 17.3526 3.77525 17.1086L6.07129 14.8125C7.21225 15.3308 8.56348 15.625 9.99998 15.625C11.9511 15.625 13.7448 15.0823 15.0681 14.1726C16.3886 13.2647 17.2916 11.9473 17.2916 10.4166C17.2916 8.88591 16.3886 7.56855 15.0681 6.66069C14.902 6.54648 14.7284 6.43806 14.5481 6.33576L16.2753 4.60857ZM12.3442 6.77187C11.6268 6.57098 10.8357 6.45829 9.99998 6.45829C8.26916 6.45829 6.72958 6.94167 5.64001 7.69075C4.54768 8.44173 3.95831 9.41604 3.95831 10.4166C3.95831 11.4172 4.54768 12.3915 5.64001 13.1425C5.70553 13.1875 5.77266 13.2316 5.84137 13.2747L7.39273 11.7233C7.06553 11.2293 6.87498 10.6369 6.87498 9.99996C6.87498 8.27407 8.27409 6.87496 9.99998 6.87496C10.6369 6.87496 11.2293 7.06551 11.7234 7.39272L12.3442 6.77187ZM12.6072 8.27661L13.6241 7.25981C13.8873 7.39065 14.1333 7.53495 14.3599 7.69075C15.4523 8.44173 16.0416 9.41604 16.0416 10.4166C16.0416 11.4172 15.4523 12.3915 14.3599 13.1425C13.2704 13.8916 11.7308 14.375 9.99998 14.375C8.91224 14.375 7.90003 14.184 7.02758 13.8563L8.27662 12.6072C8.77064 12.9344 9.36306 13.125 9.99998 13.125C11.7259 13.125 13.125 11.7258 13.125 9.99996C13.125 9.36304 12.9344 8.77063 12.6072 8.27661ZM10.8084 8.3077C10.5636 8.19056 10.2895 8.12496 9.99998 8.12496C8.96445 8.12496 8.12498 8.96443 8.12498 9.99996C8.12498 10.2894 8.19058 10.5636 8.30772 10.8084L10.8084 8.3077ZM9.19161 11.6922L11.6923 9.1916C11.8094 9.43636 11.875 9.7105 11.875 9.99996C11.875 11.0355 11.0355 11.875 9.99998 11.875C9.71052 11.875 9.43638 11.8094 9.19161 11.6922Z" fill="#540D6E"/>
</svg>
