<svg width="24" height="24" viewBox="0 0 24 24" fill="none" xmlns="http://www.w3.org/2000/svg">
<rect width="24" height="24" fill="white" fill-opacity="0.01"/>
<path d="M5.63105 11.9796L6.05885 12.4352H6.05885L5.63105 11.9796ZM18.3689 11.9796L18.7967 11.5239L18.7967 11.5239L18.3689 11.9796ZM13.3689 7.28521L12.9412 7.74086V7.74086L13.3689 7.28521ZM10.6311 7.28521L10.2033 6.82956V6.82956L10.6311 7.28521ZM14.0689 18.6649L13.4872 18.8936L14.0689 18.6649ZM9.18111 18.6649L9.76277 18.8936L9.18111 18.6649ZM5.625 13.4376C5.625 13.0579 5.78202 12.6951 6.05885 12.4352L5.20326 11.5239C4.67477 12.0201 4.375 12.7127 4.375 13.4376H5.625ZM5.625 17.1442V13.4376H4.375V17.1442H5.625ZM7 18.5192C6.24061 18.5192 5.625 17.9035 5.625 17.1442H4.375C4.375 18.5939 5.55025 19.7692 7 19.7692V18.5192ZM8.54482 18.5192H7V19.7692H8.54482V18.5192ZM9.76277 18.8936C10.0552 18.1498 10.7796 17.625 11.625 17.625V16.375C10.2486 16.375 9.07354 17.2304 8.59944 18.4363L9.76277 18.8936ZM11.625 17.625C12.4704 17.625 13.1948 18.1498 13.4872 18.8936L14.6506 18.4363C14.1765 17.2304 13.0014 16.375 11.625 16.375V17.625ZM17 18.5192H14.7052V19.7692H17V18.5192ZM18.375 17.1441C18.375 17.9035 17.7594 18.5192 17 18.5192V19.7692C18.4497 19.7692 19.625 18.5939 19.625 17.1441H18.375ZM18.375 13.4376V17.1441H19.625V13.4376H18.375ZM17.9411 12.4352C18.218 12.6951 18.375 13.0579 18.375 13.4376H19.625C19.625 12.7127 19.3252 12.0201 18.7967 11.5239L17.9411 12.4352ZM12.9412 7.74086L17.9412 12.4352L18.7967 11.5239L13.7967 6.82956L12.9412 7.74086ZM11.0588 7.74086C11.588 7.2441 12.412 7.2441 12.9412 7.74086L13.7967 6.82956C12.7866 5.88119 11.2134 5.8812 10.2033 6.82956L11.0588 7.74086ZM6.05885 12.4352L11.0588 7.74086L10.2033 6.82956L5.20326 11.5239L6.05885 12.4352ZM13.4872 18.8936C13.6609 19.3353 14.0942 19.7692 14.7052 19.7692V18.5192C14.7174 18.5192 14.7179 18.5247 14.7043 18.514C14.6881 18.5013 14.6657 18.4749 14.6506 18.4363L13.4872 18.8936ZM8.54482 19.7692C9.15581 19.7692 9.58913 19.3353 9.76277 18.8936L8.59944 18.4363C8.58427 18.4749 8.56187 18.5013 8.54569 18.514C8.53208 18.5247 8.5326 18.5192 8.54482 18.5192V19.7692Z" fill="#540D6E"/>
<path d="M3 12L9.36396 5.63604C10.9261 4.07394 13.4587 4.07394 15.0208 5.63604L21.6148 12.23" stroke="#540D6E" stroke-width="1.25" stroke-linecap="round" stroke-linejoin="round"/>
</svg>
