<svg width="24" height="24" viewBox="0 0 24 24" fill="none" xmlns="http://www.w3.org/2000/svg">
<rect width="24" height="24" fill="white" fill-opacity="0.01"/>
<path fill-rule="evenodd" clip-rule="evenodd" d="M5.93849 11.9796C5.53583 12.3576 5.30743 12.8853 5.30743 13.4376V17.1442C5.30743 18.2487 6.20286 19.1442 7.30743 19.1442H8.54486C8.8341 19.1442 9.0753 18.9342 9.18114 18.665C9.56442 17.6901 10.5141 17.0001 11.625 17.0001C12.7359 17.0001 13.6856 17.6901 14.0689 18.665C14.1747 18.9342 14.4159 19.1442 14.7051 19.1442H17.3074C18.412 19.1442 19.3074 18.2487 19.3074 17.1441V13.4376C19.3074 12.8853 19.079 12.3576 18.6764 11.9796L13.6764 7.28521C12.9068 6.56264 11.7081 6.56265 10.9385 7.28521L5.93849 11.9796Z" fill="#FFCE00"/>
<path d="M3 12L9.36396 5.63604C10.9261 4.07394 13.4587 4.07394 15.0208 5.63604L21.6148 12.23" stroke="#540D6E" stroke-width="1.25" stroke-linecap="round" stroke-linejoin="round"/>
</svg>
