<svg width="24" height="24" viewBox="0 0 24 24" fill="none" xmlns="http://www.w3.org/2000/svg">
<rect width="24" height="24" fill="white" fill-opacity="0.01"/>
<rect x="6.63953" y="8" width="10" height="10" rx="2" fill="#FFCE00"/>
<path fill-rule="evenodd" clip-rule="evenodd" d="M20.9557 4C20.9557 3.65482 20.6759 3.375 20.3307 3.375L14.7057 3.375C14.3605 3.375 14.0807 3.65482 14.0807 4C14.0807 4.34518 14.3605 4.625 14.7057 4.625L18.8218 4.625L11.8887 11.5581C11.6447 11.8021 11.6447 12.1979 11.8887 12.4419C12.1328 12.686 12.5285 12.686 12.7726 12.4419L19.7057 5.50888V9.625C19.7057 9.97018 19.9855 10.25 20.3307 10.25C20.6759 10.25 20.9557 9.97018 20.9557 9.625V4ZM5.36755 8C5.36755 7.24061 5.98316 6.625 6.74255 6.625H11.7426C12.0877 6.625 12.3676 6.34518 12.3676 6C12.3676 5.65482 12.0877 5.375 11.7426 5.375H6.74255C5.29281 5.375 4.11755 6.55025 4.11755 8V18C4.11755 19.4497 5.29281 20.625 6.74255 20.625H16.7426C18.1923 20.625 19.3676 19.4497 19.3676 18V13C19.3676 12.6548 19.0877 12.375 18.7426 12.375C18.3974 12.375 18.1176 12.6548 18.1176 13V18C18.1176 18.7594 17.5019 19.375 16.7426 19.375H6.74255C5.98316 19.375 5.36755 18.7594 5.36755 18V8Z" fill="#540D6E"/>
</svg>
