<svg width="24" height="24" viewBox="0 0 24 24" fill="none" xmlns="http://www.w3.org/2000/svg">
<rect width="24" height="24" fill="white" fill-opacity="0.01"/>
<circle cx="12" cy="12" r="12" fill="#121D23" fill-opacity="0.6"/>
<rect x="8.42639" y="9.33337" width="6.66667" height="6.66667" rx="1.66667" fill="white" fill-opacity="0.4"/>
<path fill-rule="evenodd" clip-rule="evenodd" d="M17.5538 6.14587H12.8663C12.5786 6.14587 12.3454 6.37906 12.3454 6.66671C12.3454 6.95436 12.5786 7.18754 12.8663 7.18754L16.2964 7.18754L11.8522 11.6318C11.6488 11.8352 11.6488 12.1649 11.8522 12.3683C12.0556 12.5717 12.3853 12.5717 12.5887 12.3683L17.0329 7.92411L17.0329 11.3542C17.0329 11.6419 17.2661 11.875 17.5538 11.875C17.8414 11.875 18.0746 11.6419 18.0746 11.3542V6.66671C18.0746 6.37906 17.8414 6.14587 17.5538 6.14587ZM7.68254 9.66669C7.68254 9.03386 8.19554 8.52085 8.82837 8.52085H11.8284C12.116 8.52085 12.3492 8.28767 12.3492 8.00002C12.3492 7.71237 12.116 7.47919 11.8284 7.47919H8.82837C7.62025 7.47919 6.64087 8.45856 6.64087 9.66669V15.6667C6.64087 16.8748 7.62024 17.8542 8.82837 17.8542H14.8284C16.0365 17.8542 17.0159 16.8748 17.0159 15.6667V12.6667C17.0159 12.379 16.7827 12.1459 16.495 12.1459C16.2074 12.1459 15.9742 12.379 15.9742 12.6667V15.6667C15.9742 16.2995 15.4612 16.8125 14.8284 16.8125H8.82837C8.19554 16.8125 7.68254 16.2995 7.68254 15.6667V9.66669Z" fill="white"/>
</svg>
