<svg width="24" height="24" viewBox="0 0 24 24" fill="none" xmlns="http://www.w3.org/2000/svg">
<rect width="24" height="24" fill="white" fill-opacity="0.01"/>
<path fill-rule="evenodd" clip-rule="evenodd" d="M2.375 6C2.375 5.65482 2.65482 5.375 3 5.375H21C21.3452 5.375 21.625 5.65482 21.625 6C21.625 6.34518 21.3452 6.625 21 6.625H3C2.65482 6.625 2.375 6.34518 2.375 6ZM2.375 12C2.375 11.6548 2.65482 11.375 3 11.375H21C21.3452 11.375 21.625 11.6548 21.625 12C21.625 12.3452 21.3452 12.625 21 12.625H3C2.65482 12.625 2.375 12.3452 2.375 12ZM3 17.375C2.65482 17.375 2.375 17.6548 2.375 18C2.375 18.3452 2.65482 18.625 3 18.625H21C21.3452 18.625 21.625 18.3452 21.625 18C21.625 17.6548 21.3452 17.375 21 17.375H3Z" fill="white"/>
</svg>
