<svg width="24" height="24" viewBox="0 0 24 24" fill="none" xmlns="http://www.w3.org/2000/svg">
<rect width="24" height="24" fill="white" fill-opacity="0.01"/>
<path d="M20.0008 15.3007L19.6895 15.8136V15.8136L20.0008 15.3007ZM19.4264 14.8815L18.9594 15.2583C18.9685 15.2695 18.9779 15.2804 18.9878 15.2909L19.4264 14.8815ZM4.97825 15.3007L5.28961 15.8136L5.28961 15.8136L4.97825 15.3007ZM5.5527 14.8815L5.9913 15.2909C5.99852 15.2832 6.00553 15.2753 6.01233 15.2672L5.5527 14.8815ZM11.8837 3.40479C11.8837 3.73616 12.1523 4.00479 12.4837 4.00479C12.8151 4.00479 13.0837 3.73616 13.0837 3.40479H11.8837ZM13.0837 2C13.0837 1.66863 12.8151 1.4 12.4837 1.4C12.1523 1.4 11.8837 1.66863 11.8837 2H13.0837ZM20.3733 18.4622C20.5995 18.4622 20.7816 18.3652 20.8982 18.2815C21.0231 18.1919 21.1297 18.0776 21.2169 17.9572C21.3914 17.7161 21.5274 17.3961 21.5718 17.0374C21.6667 16.2707 21.3364 15.4096 20.3122 14.7879L19.6895 15.8136C20.3442 16.2111 20.413 16.6307 20.3809 16.89C20.3618 17.0443 20.3028 17.1735 20.2449 17.2535C20.2158 17.2936 20.1969 17.3077 20.1987 17.3065C20.2002 17.3054 20.2133 17.2961 20.2387 17.2861C20.2637 17.2763 20.3101 17.2622 20.3733 17.2622V18.4622ZM19.8933 14.5047C19.3729 13.8597 19.066 12.8868 18.82 11.6743C18.6987 11.0762 18.5974 10.4505 18.4863 9.80041C18.3762 9.15653 18.2574 8.49456 18.1039 7.85263C17.7993 6.57941 17.3422 5.31079 16.4682 4.36024C15.5696 3.38292 14.2902 2.80464 12.4858 2.80464V4.00464C14.0053 4.00464 14.9458 4.47736 15.5848 5.17243C16.2485 5.89427 16.6468 6.91945 16.9368 8.13182C17.0805 8.73269 17.1939 9.36147 17.3035 10.0026C17.412 10.6375 17.5179 11.2911 17.644 11.9128C17.8929 13.1399 18.2417 14.3688 18.9594 15.2583L19.8933 14.5047ZM20.3122 14.7879C20.0867 14.651 19.959 14.5728 19.865 14.4721L18.9878 15.2909C19.2184 15.538 19.5083 15.7037 19.6895 15.8136L20.3122 14.7879ZM4.62561 17.2622C4.6887 17.2622 4.73472 17.2762 4.75909 17.2857C4.78385 17.2954 4.79637 17.3043 4.79735 17.305C4.79805 17.3055 4.77822 17.2905 4.74826 17.2498C4.68855 17.1686 4.62794 17.0386 4.60735 16.8843C4.57294 16.6265 4.63692 16.2099 5.28961 15.8136L4.66689 14.7879C3.64066 15.4108 3.31537 16.2749 3.4179 17.0431C3.46578 17.4018 3.60519 17.721 3.78161 17.9609C3.86972 18.0806 3.97699 18.1941 4.10189 18.2829C4.21819 18.3657 4.40007 18.4622 4.62561 18.4622V17.2622ZM6.01233 15.2672C6.72279 14.4205 7.06355 13.2062 7.30786 11.9929C7.43207 11.376 7.53732 10.7231 7.64595 10.0867C7.75567 9.44403 7.87 8.81066 8.01523 8.20376C8.30828 6.97916 8.7118 5.93433 9.3817 5.19667C10.0267 4.48641 10.9706 4.00464 12.4858 4.00464V2.80464C10.6772 2.80464 9.39431 3.39783 8.49335 4.38992C7.6173 5.3546 7.15568 6.63951 6.84819 7.92448C6.69315 8.57235 6.57336 9.23873 6.46307 9.88479C6.3517 10.5372 6.25106 11.162 6.13147 11.756C5.88819 12.9643 5.58972 13.9039 5.09307 14.4958L6.01233 15.2672ZM5.28961 15.8136C5.47077 15.7037 5.7607 15.538 5.9913 15.2909L5.1141 14.4721C5.02009 14.5728 4.89237 14.651 4.66689 14.7879L5.28961 15.8136ZM4.62561 18.4622H20.3733V17.2622H4.62561V18.4622ZM9.00676 17.8351C9.00676 20.2711 10.7211 21.61 12.4764 21.6314C13.342 21.6419 14.2195 21.3316 14.8823 20.6798C15.551 20.0222 15.9606 19.0573 15.9606 17.8352H14.7606C14.7606 18.7789 14.451 19.4209 14.0409 19.8242C13.6248 20.2334 13.0639 20.4384 12.491 20.4314C11.3694 20.4178 10.2068 19.591 10.2068 17.8351H9.00676ZM13.0837 3.40479V2H11.8837V3.40479H13.0837Z" fill="white"/>
</svg>
