<svg width="40" height="40" viewBox="0 0 40 40" fill="none" xmlns="http://www.w3.org/2000/svg">
<rect width="40" height="40" fill="white" fill-opacity="0.01"/>
<rect x="11.4584" y="8.33337" width="18.75" height="13.3333" rx="3.33333" fill="#FFCE00"/>
<path fill-rule="evenodd" clip-rule="evenodd" d="M7.33337 8.33333C7.33337 5.9401 9.27347 4 11.6667 4H30C32.3933 4 34.3334 5.9401 34.3334 8.33333V33.3333C34.3334 35.7266 32.3933 37.6667 30 37.6667H11.6667C9.27348 37.6667 7.33337 35.7266 7.33337 33.3333V8.33333ZM11.6667 6C10.378 6 9.33337 7.04467 9.33337 8.33333V33.3333C9.33337 34.622 10.378 35.6667 11.6667 35.6667H30C31.2887 35.6667 32.3334 34.622 32.3334 33.3333V8.33333C32.3334 7.04467 31.2887 6 30 6H11.6667ZM10.6667 26.6667C10.6667 26.1144 11.1144 25.6667 11.6667 25.6667H28.3334C28.8857 25.6667 29.3334 26.1144 29.3334 26.6667C29.3334 27.219 28.8857 27.6667 28.3334 27.6667H11.6667C11.1144 27.6667 10.6667 27.219 10.6667 26.6667ZM11.6667 29C11.1144 29 10.6667 29.4477 10.6667 30C10.6667 30.5523 11.1144 31 11.6667 31H21.8731C22.4254 31 22.8731 30.5523 22.8731 30C22.8731 29.4477 22.4254 29 21.8731 29H11.6667Z" fill="#540D6E"/>
</svg>
