<svg width="20" height="20" viewBox="0 0 20 20" fill="none" xmlns="http://www.w3.org/2000/svg">
<rect width="20" height="20" fill="white" fill-opacity="0.01"/>
<path fill-rule="evenodd" clip-rule="evenodd" d="M16.7005 3.02026C16.7005 2.67509 16.4207 2.39526 16.0755 2.39526C15.7303 2.39526 15.4505 2.67509 15.4505 3.02026V5.15644C14.7368 4.35325 13.8485 3.71113 12.8432 3.28544C11.1899 2.58539 9.33657 2.51986 7.63804 3.1014C5.9395 3.68294 4.51522 4.87066 3.63798 6.43708C2.76075 8.00349 2.49224 9.83848 2.88387 11.5906C3.27551 13.3427 4.29977 14.8887 5.76046 15.9325C7.22116 16.9763 9.0156 17.4446 10.8001 17.2476C12.5846 17.0506 14.2336 16.2021 15.4315 14.8648C16.6293 13.5275 17.2916 11.7953 17.2916 9.99994C17.2916 9.65476 17.0118 9.37494 16.6666 9.37494C16.3214 9.37494 16.0416 9.65476 16.0416 9.99994C16.0416 11.4875 15.4928 12.9228 14.5003 14.0308C13.5079 15.1389 12.1415 15.8419 10.6629 16.0051C9.18434 16.1684 7.69752 15.7804 6.48723 14.9155C5.27694 14.0506 4.42827 12.7696 4.10377 11.3179C3.77927 9.86616 4.00175 8.34574 4.7286 7.04785C5.45546 5.74997 6.63558 4.76585 8.04293 4.28401C9.45029 3.80216 10.9859 3.85646 12.3557 4.4365C13.4166 4.8857 14.3202 5.62576 14.968 6.56193H11.9089C11.5637 6.56193 11.2839 6.84175 11.2839 7.18693C11.2839 7.53211 11.5637 7.81193 11.9089 7.81193H16.0755C16.4207 7.81193 16.7005 7.53211 16.7005 7.18693V3.02026Z" fill="#540D6E"/>
</svg>
