<svg width="40" height="40" viewBox="0 0 40 40" fill="none" xmlns="http://www.w3.org/2000/svg">
<rect width="40" height="40" fill="white" fill-opacity="0.01"/>
<rect x="12.5" y="11.6666" width="16.6667" height="16.6667" rx="3.33333" fill="#FFCE00"/>
<path fill-rule="evenodd" clip-rule="evenodd" d="M31.6666 5.66663C34.0599 5.66663 36 7.60672 36 9.99996V15C36 15.5522 35.5522 16 35 16C34.4477 16 34 15.5522 34 15V9.99996C34 8.7113 32.9553 7.66663 31.6666 7.66663L26.6666 7.66663C26.1143 7.66663 25.6666 7.21891 25.6666 6.66663C25.6666 6.11434 26.1143 5.66663 26.6666 5.66663L31.6666 5.66663ZM5.66663 9.99996C5.66663 7.60673 7.60672 5.66663 9.99996 5.66663H15C15.5522 5.66663 16 6.11434 16 6.66663C16 7.21891 15.5522 7.66663 15 7.66663H9.99996C8.71129 7.66663 7.66663 8.7113 7.66663 9.99996V15C7.66663 15.5522 7.21891 16 6.66663 16C6.11434 16 5.66663 15.5522 5.66663 15V9.99996ZM8.99996 20C8.99996 19.4477 9.44767 19 9.99996 19H30C30.5522 19 31 19.4477 31 20C31 20.5522 30.5522 21 30 21H9.99996C9.44767 21 8.99996 20.5522 8.99996 20ZM31.6666 36C34.0599 36 36 34.0599 36 31.6666V26.6666C36 26.1143 35.5522 25.6666 35 25.6666C34.4477 25.6666 34 26.1143 34 26.6666V31.6666C34 32.9553 32.9553 34 31.6666 34H26.6666C26.1143 34 25.6666 34.4477 25.6666 35C25.6666 35.5522 26.1143 36 26.6666 36H31.6666ZM5.66663 31.6666C5.66663 34.0599 7.60673 36 9.99996 36L15 36C15.5522 36 16 35.5522 16 35C16 34.4477 15.5522 34 15 34L9.99996 34C8.7113 34 7.66663 32.9553 7.66663 31.6666L7.66663 26.6666C7.66663 26.1143 7.21891 25.6666 6.66663 25.6666C6.11434 25.6666 5.66663 26.1143 5.66663 26.6666L5.66663 31.6666Z" fill="#540D6E"/>
</svg>
