<svg width="20" height="20" viewBox="0 0 20 20" fill="none" xmlns="http://www.w3.org/2000/svg">
<rect width="20" height="20" fill="white" fill-opacity="0.01"/>
<path fill-rule="evenodd" clip-rule="evenodd" d="M3.95831 9.99996C3.95831 8.99937 4.54768 8.02506 5.64001 7.27408C6.72958 6.525 8.26916 6.04163 9.99998 6.04163C11.7308 6.04163 13.2704 6.525 14.3599 7.27408C15.4523 8.02506 16.0416 8.99937 16.0416 9.99996C16.0416 11.0005 15.4523 11.9749 14.3599 12.7258C13.2704 13.4749 11.7308 13.9583 9.99998 13.9583C8.26916 13.9583 6.72958 13.4749 5.64001 12.7258C4.54768 11.9749 3.95831 11.0005 3.95831 9.99996ZM9.99998 4.79163C8.0489 4.79163 6.25514 5.33426 4.93185 6.24403C3.61133 7.15189 2.70831 8.46924 2.70831 9.99996C2.70831 11.5307 3.61133 12.848 4.93185 13.7559C6.25515 14.6657 8.0489 15.2083 9.99998 15.2083C11.9511 15.2083 13.7448 14.6657 15.0681 13.7559C16.3886 12.848 17.2916 11.5307 17.2916 9.99996C17.2916 8.46924 16.3886 7.15189 15.0681 6.24403C13.7448 5.33426 11.9511 4.79163 9.99998 4.79163ZM8.12498 9.99996C8.12498 8.96443 8.96445 8.12496 9.99998 8.12496C11.0355 8.12496 11.875 8.96443 11.875 9.99996C11.875 11.0355 11.0355 11.875 9.99998 11.875C8.96445 11.875 8.12498 11.0355 8.12498 9.99996ZM9.99998 6.87496C8.27409 6.87496 6.87498 8.27407 6.87498 9.99996C6.87498 11.7258 8.27409 13.125 9.99998 13.125C11.7259 13.125 13.125 11.7258 13.125 9.99996C13.125 8.27407 11.7259 6.87496 9.99998 6.87496Z" fill="#540D6E"/>
</svg>
