<svg width="24" height="24" viewBox="0 0 24 24" fill="none" xmlns="http://www.w3.org/2000/svg">
<rect width="24" height="24" fill="white" fill-opacity="0.01"/>
<path d="M13 5C10.2386 5 8 7.23858 8 10H7C4.79086 10 3 11.7909 3 14C3 16.2091 4.79086 18 7 18H16.102H18C20.2091 18 22 16.2091 22 14C22 11.7909 20.2091 10 18 10C18 7.23858 15.7614 5 13 5Z" fill="#FFCE00"/>
<path fill-rule="evenodd" clip-rule="evenodd" d="M8.625 10C8.625 7.58375 10.5838 5.625 13 5.625C15.4162 5.625 17.375 7.58375 17.375 10C17.375 10.3452 17.6548 10.625 18 10.625C19.864 10.625 21.375 12.136 21.375 14C21.375 15.864 19.864 17.375 18 17.375H16.102C15.7568 17.375 15.477 17.6548 15.477 18C15.477 18.3452 15.7568 18.625 16.102 18.625H18C20.5543 18.625 22.625 16.5543 22.625 14C22.625 11.6472 20.8681 9.70473 18.5947 9.41289C18.3012 6.5822 15.9083 4.375 13 4.375C10.1047 4.375 7.72023 6.56253 7.40933 9.375H7C4.44568 9.375 2.375 11.4457 2.375 14C2.375 16.5543 4.44568 18.625 7 18.625H8.58773C8.93291 18.625 9.21273 18.3452 9.21273 18C9.21273 17.6548 8.93291 17.375 8.58773 17.375H7C5.13604 17.375 3.625 15.864 3.625 14C3.625 12.136 5.13604 10.625 7 10.625H8C8.34518 10.625 8.625 10.3452 8.625 10ZM15.4714 14.4104C15.2447 14.6707 14.85 14.698 14.5896 14.4714L12.6261 12.7619L12.6355 19.6241C12.636 19.9693 12.3566 20.2495 12.0114 20.25C11.6662 20.2505 11.386 19.971 11.3855 19.6259L11.376 12.7503L9.41791 14.5099C9.16116 14.7406 8.766 14.7195 8.53529 14.4628C8.30457 14.206 8.32568 13.8109 8.58243 13.5802L11.5603 10.9042C11.7951 10.6932 12.1504 10.6904 12.3884 10.8977L15.4104 13.5286C15.6707 13.7553 15.698 14.15 15.4714 14.4104Z" fill="#540D6E"/>
</svg>
